<mxfile host="app.diagrams.net" modified="2023-09-26T17:21:20.864Z" agent="Mozilla/5.0 (X11; Linux x86_64) AppleWebKit/537.36 (KHTML, like Gecko) Chrome/117.0.0.0 Safari/537.36" etag="rHok862b-9lGfHTGZi4I" version="21.8.2" type="device">
  <diagram name="Page-1" id="3b4uhlyP5QZzdHUlhqMf">
    <mxGraphModel dx="600" dy="320" grid="1" gridSize="10" guides="1" tooltips="1" connect="1" arrows="1" fold="1" page="1" pageScale="1" pageWidth="850" pageHeight="1100" math="0" shadow="0">
      <root>
        <mxCell id="0" />
        <mxCell id="1" parent="0" />
        <mxCell id="ey7ev-T-7AU6QwHwO5Xz-7" style="edgeStyle=orthogonalEdgeStyle;rounded=0;orthogonalLoop=1;jettySize=auto;html=1;exitX=0;exitY=0.5;exitDx=0;exitDy=0;entryX=1;entryY=0.5;entryDx=0;entryDy=0;fontFamily=Helvetica;fontSize=12;fontColor=default;" parent="1" source="ey7ev-T-7AU6QwHwO5Xz-1" target="ey7ev-T-7AU6QwHwO5Xz-5" edge="1">
          <mxGeometry relative="1" as="geometry" />
        </mxCell>
        <mxCell id="ey7ev-T-7AU6QwHwO5Xz-27" style="edgeStyle=orthogonalEdgeStyle;shape=connector;curved=1;rounded=0;orthogonalLoop=1;jettySize=auto;html=1;exitX=0;exitY=0.5;exitDx=0;exitDy=0;entryX=1;entryY=0.5;entryDx=0;entryDy=0;labelBackgroundColor=default;strokeColor=default;align=center;verticalAlign=middle;fontFamily=Helvetica;fontSize=12;fontColor=default;endArrow=classic;elbow=vertical;" parent="1" source="ey7ev-T-7AU6QwHwO5Xz-1" target="ey7ev-T-7AU6QwHwO5Xz-11" edge="1">
          <mxGeometry relative="1" as="geometry" />
        </mxCell>
        <mxCell id="ey7ev-T-7AU6QwHwO5Xz-28" style="edgeStyle=orthogonalEdgeStyle;shape=connector;curved=1;rounded=0;orthogonalLoop=1;jettySize=auto;html=1;exitX=0;exitY=0.5;exitDx=0;exitDy=0;entryX=1;entryY=0.5;entryDx=0;entryDy=0;labelBackgroundColor=default;strokeColor=default;align=center;verticalAlign=middle;fontFamily=Helvetica;fontSize=12;fontColor=default;endArrow=classic;elbow=vertical;" parent="1" source="ey7ev-T-7AU6QwHwO5Xz-1" target="ey7ev-T-7AU6QwHwO5Xz-24" edge="1">
          <mxGeometry relative="1" as="geometry">
            <Array as="points">
              <mxPoint x="400" y="532" />
              <mxPoint x="350" y="532" />
              <mxPoint x="350" y="435" />
            </Array>
          </mxGeometry>
        </mxCell>
        <mxCell id="ey7ev-T-7AU6QwHwO5Xz-29" style="edgeStyle=orthogonalEdgeStyle;shape=connector;curved=1;rounded=0;orthogonalLoop=1;jettySize=auto;html=1;exitX=0;exitY=0.5;exitDx=0;exitDy=0;entryX=1;entryY=0.5;entryDx=0;entryDy=0;labelBackgroundColor=default;strokeColor=default;align=center;verticalAlign=middle;fontFamily=Helvetica;fontSize=12;fontColor=default;endArrow=classic;elbow=vertical;" parent="1" source="ey7ev-T-7AU6QwHwO5Xz-1" target="ey7ev-T-7AU6QwHwO5Xz-21" edge="1">
          <mxGeometry relative="1" as="geometry">
            <Array as="points">
              <mxPoint x="400" y="520" />
              <mxPoint x="360" y="520" />
              <mxPoint x="360" y="375" />
            </Array>
          </mxGeometry>
        </mxCell>
        <mxCell id="ey7ev-T-7AU6QwHwO5Xz-41" style="edgeStyle=orthogonalEdgeStyle;shape=connector;curved=1;rounded=0;orthogonalLoop=1;jettySize=auto;html=1;exitX=0;exitY=1;exitDx=0;exitDy=0;entryX=1;entryY=0.5;entryDx=0;entryDy=0;labelBackgroundColor=default;strokeColor=default;align=center;verticalAlign=middle;fontFamily=Helvetica;fontSize=12;fontColor=default;endArrow=classic;elbow=vertical;" parent="1" source="ey7ev-T-7AU6QwHwO5Xz-1" target="ey7ev-T-7AU6QwHwO5Xz-34" edge="1">
          <mxGeometry relative="1" as="geometry">
            <Array as="points">
              <mxPoint x="340" y="568" />
              <mxPoint x="340" y="605" />
            </Array>
          </mxGeometry>
        </mxCell>
        <mxCell id="ey7ev-T-7AU6QwHwO5Xz-42" style="edgeStyle=orthogonalEdgeStyle;shape=connector;curved=1;rounded=0;orthogonalLoop=1;jettySize=auto;html=1;exitX=0;exitY=1;exitDx=0;exitDy=0;entryX=1;entryY=0.5;entryDx=0;entryDy=0;labelBackgroundColor=default;strokeColor=default;align=center;verticalAlign=middle;fontFamily=Helvetica;fontSize=12;fontColor=default;endArrow=classic;elbow=vertical;" parent="1" source="ey7ev-T-7AU6QwHwO5Xz-1" target="ey7ev-T-7AU6QwHwO5Xz-40" edge="1">
          <mxGeometry relative="1" as="geometry" />
        </mxCell>
        <mxCell id="ey7ev-T-7AU6QwHwO5Xz-49" style="edgeStyle=orthogonalEdgeStyle;shape=connector;curved=1;rounded=0;orthogonalLoop=1;jettySize=auto;html=1;exitX=0;exitY=1;exitDx=0;exitDy=0;entryX=1;entryY=0.5;entryDx=0;entryDy=0;labelBackgroundColor=default;strokeColor=default;align=center;verticalAlign=middle;fontFamily=Helvetica;fontSize=12;fontColor=default;endArrow=classic;elbow=vertical;" parent="1" source="ey7ev-T-7AU6QwHwO5Xz-1" target="ey7ev-T-7AU6QwHwO5Xz-48" edge="1">
          <mxGeometry relative="1" as="geometry">
            <Array as="points">
              <mxPoint x="360" y="568" />
              <mxPoint x="360" y="725" />
            </Array>
          </mxGeometry>
        </mxCell>
        <mxCell id="ey7ev-T-7AU6QwHwO5Xz-54" style="edgeStyle=orthogonalEdgeStyle;shape=connector;curved=1;rounded=0;orthogonalLoop=1;jettySize=auto;html=1;exitX=0;exitY=1;exitDx=0;exitDy=0;entryX=1;entryY=0;entryDx=0;entryDy=0;labelBackgroundColor=default;strokeColor=default;align=center;verticalAlign=middle;fontFamily=Helvetica;fontSize=12;fontColor=default;endArrow=classic;elbow=vertical;" parent="1" source="ey7ev-T-7AU6QwHwO5Xz-1" target="ey7ev-T-7AU6QwHwO5Xz-53" edge="1">
          <mxGeometry relative="1" as="geometry">
            <Array as="points">
              <mxPoint x="380" y="568" />
              <mxPoint x="380" y="767" />
            </Array>
          </mxGeometry>
        </mxCell>
        <mxCell id="ey7ev-T-7AU6QwHwO5Xz-64" style="edgeStyle=orthogonalEdgeStyle;shape=connector;curved=1;rounded=0;orthogonalLoop=1;jettySize=auto;html=1;exitX=0.5;exitY=0;exitDx=0;exitDy=0;entryX=0.5;entryY=1;entryDx=0;entryDy=0;labelBackgroundColor=default;strokeColor=default;align=center;verticalAlign=middle;fontFamily=Helvetica;fontSize=12;fontColor=default;endArrow=classic;elbow=vertical;" parent="1" source="ey7ev-T-7AU6QwHwO5Xz-1" target="ey7ev-T-7AU6QwHwO5Xz-63" edge="1">
          <mxGeometry relative="1" as="geometry" />
        </mxCell>
        <mxCell id="ey7ev-T-7AU6QwHwO5Xz-72" style="edgeStyle=orthogonalEdgeStyle;shape=connector;curved=1;rounded=0;orthogonalLoop=1;jettySize=auto;html=1;exitX=0;exitY=0;exitDx=0;exitDy=0;entryX=0.5;entryY=1;entryDx=0;entryDy=0;labelBackgroundColor=default;strokeColor=default;align=center;verticalAlign=middle;fontFamily=Helvetica;fontSize=12;fontColor=default;endArrow=classic;elbow=vertical;" parent="1" source="ey7ev-T-7AU6QwHwO5Xz-1" target="ey7ev-T-7AU6QwHwO5Xz-71" edge="1">
          <mxGeometry relative="1" as="geometry">
            <Array as="points">
              <mxPoint x="407" y="490" />
              <mxPoint x="380" y="490" />
              <mxPoint x="380" y="338" />
            </Array>
          </mxGeometry>
        </mxCell>
        <mxCell id="ey7ev-T-7AU6QwHwO5Xz-93" style="edgeStyle=orthogonalEdgeStyle;shape=connector;curved=1;rounded=0;orthogonalLoop=1;jettySize=auto;html=1;exitX=0.5;exitY=0;exitDx=0;exitDy=0;entryX=0.5;entryY=1;entryDx=0;entryDy=0;labelBackgroundColor=default;strokeColor=default;align=center;verticalAlign=middle;fontFamily=Helvetica;fontSize=12;fontColor=default;endArrow=classic;elbow=vertical;" parent="1" source="ey7ev-T-7AU6QwHwO5Xz-1" target="ey7ev-T-7AU6QwHwO5Xz-90" edge="1">
          <mxGeometry relative="1" as="geometry">
            <Array as="points">
              <mxPoint x="430" y="525" />
              <mxPoint x="430" y="458" />
              <mxPoint x="485" y="458" />
            </Array>
          </mxGeometry>
        </mxCell>
        <mxCell id="ey7ev-T-7AU6QwHwO5Xz-103" style="edgeStyle=orthogonalEdgeStyle;shape=connector;curved=1;rounded=0;orthogonalLoop=1;jettySize=auto;html=1;exitX=1;exitY=0;exitDx=0;exitDy=0;entryX=0;entryY=1;entryDx=0;entryDy=0;labelBackgroundColor=default;strokeColor=default;align=center;verticalAlign=middle;fontFamily=Helvetica;fontSize=12;fontColor=default;endArrow=classic;elbow=vertical;" parent="1" source="ey7ev-T-7AU6QwHwO5Xz-1" target="ey7ev-T-7AU6QwHwO5Xz-97" edge="1">
          <mxGeometry relative="1" as="geometry">
            <Array as="points">
              <mxPoint x="443" y="520" />
              <mxPoint x="490" y="520" />
              <mxPoint x="490" y="433" />
            </Array>
          </mxGeometry>
        </mxCell>
        <mxCell id="ey7ev-T-7AU6QwHwO5Xz-104" style="edgeStyle=orthogonalEdgeStyle;shape=connector;curved=1;rounded=0;orthogonalLoop=1;jettySize=auto;html=1;exitX=1;exitY=0;exitDx=0;exitDy=0;entryX=0;entryY=0.5;entryDx=0;entryDy=0;labelBackgroundColor=default;strokeColor=default;align=center;verticalAlign=middle;fontFamily=Helvetica;fontSize=12;fontColor=default;endArrow=classic;elbow=vertical;" parent="1" source="ey7ev-T-7AU6QwHwO5Xz-1" target="ey7ev-T-7AU6QwHwO5Xz-100" edge="1">
          <mxGeometry relative="1" as="geometry">
            <Array as="points">
              <mxPoint x="500" y="532" />
              <mxPoint x="500" y="475" />
            </Array>
          </mxGeometry>
        </mxCell>
        <mxCell id="ey7ev-T-7AU6QwHwO5Xz-125" style="edgeStyle=orthogonalEdgeStyle;shape=connector;curved=1;rounded=0;orthogonalLoop=1;jettySize=auto;html=1;exitX=0.5;exitY=1;exitDx=0;exitDy=0;entryX=0.5;entryY=0;entryDx=0;entryDy=0;labelBackgroundColor=default;strokeColor=default;align=center;verticalAlign=middle;fontFamily=Helvetica;fontSize=12;fontColor=default;endArrow=classic;elbow=vertical;" parent="1" source="ey7ev-T-7AU6QwHwO5Xz-1" target="ey7ev-T-7AU6QwHwO5Xz-124" edge="1">
          <mxGeometry relative="1" as="geometry" />
        </mxCell>
        <mxCell id="-FXcNoNlDTyhdYF_TwbN-16" style="edgeStyle=orthogonalEdgeStyle;rounded=0;orthogonalLoop=1;jettySize=auto;html=1;exitX=0;exitY=0;exitDx=0;exitDy=0;entryX=1;entryY=0.5;entryDx=0;entryDy=0;curved=1;" edge="1" parent="1" source="ey7ev-T-7AU6QwHwO5Xz-1" target="-FXcNoNlDTyhdYF_TwbN-14">
          <mxGeometry relative="1" as="geometry">
            <Array as="points">
              <mxPoint x="407" y="510" />
              <mxPoint x="370" y="510" />
              <mxPoint x="370" y="350" />
              <mxPoint x="320" y="350" />
              <mxPoint x="320" y="315" />
            </Array>
          </mxGeometry>
        </mxCell>
        <mxCell id="ey7ev-T-7AU6QwHwO5Xz-1" value="START" style="ellipse;whiteSpace=wrap;html=1;fillColor=#006600;" parent="1" vertex="1">
          <mxGeometry x="400" y="525" width="50" height="50" as="geometry" />
        </mxCell>
        <mxCell id="ey7ev-T-7AU6QwHwO5Xz-6" value="" style="group" parent="1" vertex="1" connectable="0">
          <mxGeometry x="250" y="525" width="50" height="50" as="geometry" />
        </mxCell>
        <mxCell id="ey7ev-T-7AU6QwHwO5Xz-3" value="" style="ellipse;whiteSpace=wrap;html=1;" parent="ey7ev-T-7AU6QwHwO5Xz-6" vertex="1">
          <mxGeometry x="5" y="5" width="40" height="40" as="geometry" />
        </mxCell>
        <mxCell id="ey7ev-T-7AU6QwHwO5Xz-5" value="L_PAR" style="ellipse;whiteSpace=wrap;html=1;fillColor=none;" parent="ey7ev-T-7AU6QwHwO5Xz-6" vertex="1">
          <mxGeometry width="50" height="50" as="geometry" />
        </mxCell>
        <mxCell id="ey7ev-T-7AU6QwHwO5Xz-9" value="" style="group" parent="1" vertex="1" connectable="0">
          <mxGeometry x="250" y="470" width="50" height="50" as="geometry" />
        </mxCell>
        <mxCell id="ey7ev-T-7AU6QwHwO5Xz-10" value="" style="ellipse;whiteSpace=wrap;html=1;" parent="ey7ev-T-7AU6QwHwO5Xz-9" vertex="1">
          <mxGeometry x="5" y="5" width="40" height="40" as="geometry" />
        </mxCell>
        <mxCell id="ey7ev-T-7AU6QwHwO5Xz-11" value="R_PAR" style="ellipse;whiteSpace=wrap;html=1;fillColor=none;" parent="ey7ev-T-7AU6QwHwO5Xz-9" vertex="1">
          <mxGeometry width="50" height="50" as="geometry" />
        </mxCell>
        <mxCell id="ey7ev-T-7AU6QwHwO5Xz-15" value="&lt;div&gt;(&lt;/div&gt;" style="text;html=1;align=center;verticalAlign=middle;resizable=0;points=[];autosize=1;strokeColor=none;fillColor=none;fontSize=12;fontFamily=Helvetica;fontColor=default;" parent="1" vertex="1">
          <mxGeometry x="310" y="525" width="30" height="30" as="geometry" />
        </mxCell>
        <mxCell id="ey7ev-T-7AU6QwHwO5Xz-17" value="&lt;div&gt;)&lt;/div&gt;" style="text;html=1;align=center;verticalAlign=middle;resizable=0;points=[];autosize=1;strokeColor=none;fillColor=none;fontSize=12;fontFamily=Helvetica;fontColor=default;" parent="1" vertex="1">
          <mxGeometry x="310" y="470" width="30" height="30" as="geometry" />
        </mxCell>
        <mxCell id="ey7ev-T-7AU6QwHwO5Xz-19" value="" style="group" parent="1" vertex="1" connectable="0">
          <mxGeometry x="250" y="350" width="50" height="50" as="geometry" />
        </mxCell>
        <mxCell id="ey7ev-T-7AU6QwHwO5Xz-20" value="" style="ellipse;whiteSpace=wrap;html=1;" parent="ey7ev-T-7AU6QwHwO5Xz-19" vertex="1">
          <mxGeometry x="5" y="5" width="40" height="40" as="geometry" />
        </mxCell>
        <mxCell id="ey7ev-T-7AU6QwHwO5Xz-21" value="&lt;div&gt;R_BKT&lt;/div&gt;" style="ellipse;whiteSpace=wrap;html=1;fillColor=none;" parent="ey7ev-T-7AU6QwHwO5Xz-19" vertex="1">
          <mxGeometry width="50" height="50" as="geometry" />
        </mxCell>
        <mxCell id="ey7ev-T-7AU6QwHwO5Xz-22" value="" style="group" parent="1" vertex="1" connectable="0">
          <mxGeometry x="250" y="410" width="50" height="50" as="geometry" />
        </mxCell>
        <mxCell id="ey7ev-T-7AU6QwHwO5Xz-23" value="" style="ellipse;whiteSpace=wrap;html=1;" parent="ey7ev-T-7AU6QwHwO5Xz-22" vertex="1">
          <mxGeometry x="5" y="5" width="40" height="40" as="geometry" />
        </mxCell>
        <mxCell id="ey7ev-T-7AU6QwHwO5Xz-24" value="L_BKT" style="ellipse;whiteSpace=wrap;html=1;fillColor=none;" parent="ey7ev-T-7AU6QwHwO5Xz-22" vertex="1">
          <mxGeometry width="50" height="50" as="geometry" />
        </mxCell>
        <mxCell id="ey7ev-T-7AU6QwHwO5Xz-30" value="{" style="text;html=1;align=center;verticalAlign=middle;resizable=0;points=[];autosize=1;strokeColor=none;fillColor=none;fontSize=12;fontFamily=Helvetica;fontColor=default;" parent="1" vertex="1">
          <mxGeometry x="305" y="408" width="30" height="30" as="geometry" />
        </mxCell>
        <mxCell id="ey7ev-T-7AU6QwHwO5Xz-31" value="&lt;div&gt;}&lt;/div&gt;" style="text;html=1;align=center;verticalAlign=middle;resizable=0;points=[];autosize=1;strokeColor=none;fillColor=none;fontSize=12;fontFamily=Helvetica;fontColor=default;" parent="1" vertex="1">
          <mxGeometry x="305" y="348" width="30" height="30" as="geometry" />
        </mxCell>
        <mxCell id="ey7ev-T-7AU6QwHwO5Xz-32" value="" style="group" parent="1" vertex="1" connectable="0">
          <mxGeometry x="250" y="580" width="50" height="50" as="geometry" />
        </mxCell>
        <mxCell id="ey7ev-T-7AU6QwHwO5Xz-33" value="" style="ellipse;whiteSpace=wrap;html=1;" parent="ey7ev-T-7AU6QwHwO5Xz-32" vertex="1">
          <mxGeometry x="5" y="5" width="40" height="40" as="geometry" />
        </mxCell>
        <mxCell id="ey7ev-T-7AU6QwHwO5Xz-34" value="ADD" style="ellipse;whiteSpace=wrap;html=1;fillColor=none;" parent="ey7ev-T-7AU6QwHwO5Xz-32" vertex="1">
          <mxGeometry width="50" height="50" as="geometry" />
        </mxCell>
        <mxCell id="ey7ev-T-7AU6QwHwO5Xz-38" value="" style="group" parent="1" vertex="1" connectable="0">
          <mxGeometry x="250" y="640" width="50" height="50" as="geometry" />
        </mxCell>
        <mxCell id="ey7ev-T-7AU6QwHwO5Xz-39" value="" style="ellipse;whiteSpace=wrap;html=1;" parent="ey7ev-T-7AU6QwHwO5Xz-38" vertex="1">
          <mxGeometry x="5" y="5" width="40" height="40" as="geometry" />
        </mxCell>
        <mxCell id="ey7ev-T-7AU6QwHwO5Xz-56" style="edgeStyle=orthogonalEdgeStyle;shape=connector;curved=1;rounded=0;orthogonalLoop=1;jettySize=auto;html=1;exitX=0;exitY=0.5;exitDx=0;exitDy=0;labelBackgroundColor=default;strokeColor=default;align=center;verticalAlign=middle;fontFamily=Helvetica;fontSize=12;fontColor=default;endArrow=classic;elbow=vertical;" parent="ey7ev-T-7AU6QwHwO5Xz-38" source="ey7ev-T-7AU6QwHwO5Xz-40" edge="1">
          <mxGeometry relative="1" as="geometry">
            <mxPoint x="-50" y="24.827586206896513" as="targetPoint" />
          </mxGeometry>
        </mxCell>
        <mxCell id="ey7ev-T-7AU6QwHwO5Xz-40" value="SUB" style="ellipse;whiteSpace=wrap;html=1;fillColor=none;" parent="ey7ev-T-7AU6QwHwO5Xz-38" vertex="1">
          <mxGeometry width="50" height="50" as="geometry" />
        </mxCell>
        <mxCell id="ey7ev-T-7AU6QwHwO5Xz-43" value="+" style="text;html=1;align=center;verticalAlign=middle;resizable=0;points=[];autosize=1;strokeColor=none;fillColor=none;fontSize=12;fontFamily=Helvetica;fontColor=default;" parent="1" vertex="1">
          <mxGeometry x="305" y="578" width="30" height="30" as="geometry" />
        </mxCell>
        <mxCell id="ey7ev-T-7AU6QwHwO5Xz-44" value="-" style="text;html=1;align=center;verticalAlign=middle;resizable=0;points=[];autosize=1;strokeColor=none;fillColor=none;fontSize=12;fontFamily=Helvetica;fontColor=default;" parent="1" vertex="1">
          <mxGeometry x="305" y="638" width="30" height="30" as="geometry" />
        </mxCell>
        <mxCell id="ey7ev-T-7AU6QwHwO5Xz-46" value="" style="group" parent="1" vertex="1" connectable="0">
          <mxGeometry x="250" y="700" width="50" height="50" as="geometry" />
        </mxCell>
        <mxCell id="ey7ev-T-7AU6QwHwO5Xz-47" value="" style="ellipse;whiteSpace=wrap;html=1;" parent="ey7ev-T-7AU6QwHwO5Xz-46" vertex="1">
          <mxGeometry x="5" y="5" width="40" height="40" as="geometry" />
        </mxCell>
        <mxCell id="ey7ev-T-7AU6QwHwO5Xz-48" value="MUL" style="ellipse;whiteSpace=wrap;html=1;fillColor=none;" parent="ey7ev-T-7AU6QwHwO5Xz-46" vertex="1">
          <mxGeometry width="50" height="50" as="geometry" />
        </mxCell>
        <mxCell id="ey7ev-T-7AU6QwHwO5Xz-50" value="*" style="text;html=1;align=center;verticalAlign=middle;resizable=0;points=[];autosize=1;strokeColor=none;fillColor=none;fontSize=12;fontFamily=Helvetica;fontColor=default;" parent="1" vertex="1">
          <mxGeometry x="305" y="698" width="30" height="30" as="geometry" />
        </mxCell>
        <mxCell id="ey7ev-T-7AU6QwHwO5Xz-51" value="" style="group" parent="1" vertex="1" connectable="0">
          <mxGeometry x="305" y="760" width="50" height="50" as="geometry" />
        </mxCell>
        <mxCell id="ey7ev-T-7AU6QwHwO5Xz-52" value="" style="ellipse;whiteSpace=wrap;html=1;" parent="ey7ev-T-7AU6QwHwO5Xz-51" vertex="1">
          <mxGeometry x="5" y="5" width="40" height="40" as="geometry" />
        </mxCell>
        <mxCell id="ey7ev-T-7AU6QwHwO5Xz-53" value="DIV" style="ellipse;whiteSpace=wrap;html=1;fillColor=none;" parent="ey7ev-T-7AU6QwHwO5Xz-51" vertex="1">
          <mxGeometry width="50" height="50" as="geometry" />
        </mxCell>
        <mxCell id="ey7ev-T-7AU6QwHwO5Xz-57" value="" style="group" parent="1" vertex="1" connectable="0">
          <mxGeometry x="150" y="640" width="50" height="50" as="geometry" />
        </mxCell>
        <mxCell id="ey7ev-T-7AU6QwHwO5Xz-58" value="" style="ellipse;whiteSpace=wrap;html=1;" parent="ey7ev-T-7AU6QwHwO5Xz-57" vertex="1">
          <mxGeometry x="5" y="5" width="40" height="40" as="geometry" />
        </mxCell>
        <mxCell id="ey7ev-T-7AU6QwHwO5Xz-59" value="RET_&lt;br&gt;VAL" style="ellipse;whiteSpace=wrap;html=1;fillColor=none;" parent="ey7ev-T-7AU6QwHwO5Xz-57" vertex="1">
          <mxGeometry width="50" height="50" as="geometry" />
        </mxCell>
        <mxCell id="ey7ev-T-7AU6QwHwO5Xz-60" value="&amp;gt;" style="text;html=1;align=center;verticalAlign=middle;resizable=0;points=[];autosize=1;strokeColor=none;fillColor=none;fontSize=12;fontFamily=Helvetica;fontColor=default;" parent="1" vertex="1">
          <mxGeometry x="205" y="638" width="30" height="30" as="geometry" />
        </mxCell>
        <mxCell id="ey7ev-T-7AU6QwHwO5Xz-61" value="" style="group" parent="1" vertex="1" connectable="0">
          <mxGeometry x="400" y="338" width="50" height="50" as="geometry" />
        </mxCell>
        <mxCell id="ey7ev-T-7AU6QwHwO5Xz-62" value="" style="ellipse;whiteSpace=wrap;html=1;" parent="ey7ev-T-7AU6QwHwO5Xz-61" vertex="1">
          <mxGeometry x="5" y="5" width="40" height="40" as="geometry" />
        </mxCell>
        <mxCell id="ey7ev-T-7AU6QwHwO5Xz-63" value="ASS" style="ellipse;whiteSpace=wrap;html=1;fillColor=none;" parent="ey7ev-T-7AU6QwHwO5Xz-61" vertex="1">
          <mxGeometry width="50" height="50" as="geometry" />
        </mxCell>
        <mxCell id="ey7ev-T-7AU6QwHwO5Xz-65" value="=" style="text;html=1;align=center;verticalAlign=middle;resizable=0;points=[];autosize=1;strokeColor=none;fillColor=none;fontSize=12;fontFamily=Helvetica;fontColor=default;" parent="1" vertex="1">
          <mxGeometry x="425" y="388" width="30" height="30" as="geometry" />
        </mxCell>
        <mxCell id="ey7ev-T-7AU6QwHwO5Xz-78" style="edgeStyle=orthogonalEdgeStyle;shape=connector;curved=1;rounded=0;orthogonalLoop=1;jettySize=auto;html=1;exitX=0.5;exitY=0;exitDx=0;exitDy=0;entryX=1;entryY=0.5;entryDx=0;entryDy=0;labelBackgroundColor=default;strokeColor=default;align=center;verticalAlign=middle;fontFamily=Helvetica;fontSize=12;fontColor=default;endArrow=classic;elbow=vertical;" parent="1" source="ey7ev-T-7AU6QwHwO5Xz-71" target="ey7ev-T-7AU6QwHwO5Xz-77" edge="1">
          <mxGeometry relative="1" as="geometry" />
        </mxCell>
        <mxCell id="ey7ev-T-7AU6QwHwO5Xz-71" value="&lt;div&gt;&lt;br&gt;&lt;/div&gt;&lt;div align=&quot;center&quot;&gt;QM&lt;/div&gt;" style="ellipse;whiteSpace=wrap;html=1;pointerEvents=0;align=center;verticalAlign=top;fontFamily=Helvetica;fontSize=12;fontColor=default;fillColor=none;gradientColor=none;" parent="1" vertex="1">
          <mxGeometry x="335.0000000000002" y="288" width="50" height="50" as="geometry" />
        </mxCell>
        <mxCell id="ey7ev-T-7AU6QwHwO5Xz-74" value="&lt;div&gt;?&lt;/div&gt;" style="text;html=1;align=center;verticalAlign=middle;resizable=0;points=[];autosize=1;strokeColor=none;fillColor=none;fontSize=12;fontFamily=Helvetica;fontColor=default;" parent="1" vertex="1">
          <mxGeometry x="360" y="338" width="30" height="30" as="geometry" />
        </mxCell>
        <mxCell id="ey7ev-T-7AU6QwHwO5Xz-75" value="" style="group" parent="1" vertex="1" connectable="0">
          <mxGeometry x="250" y="230" width="50" height="50" as="geometry" />
        </mxCell>
        <mxCell id="ey7ev-T-7AU6QwHwO5Xz-76" value="" style="ellipse;whiteSpace=wrap;html=1;" parent="ey7ev-T-7AU6QwHwO5Xz-75" vertex="1">
          <mxGeometry x="5" y="5" width="40" height="40" as="geometry" />
        </mxCell>
        <mxCell id="ey7ev-T-7AU6QwHwO5Xz-77" value="&lt;font style=&quot;font-size: 9px;&quot;&gt;NIL&lt;br&gt;CHECK&lt;/font&gt;" style="ellipse;whiteSpace=wrap;html=1;fillColor=none;" parent="ey7ev-T-7AU6QwHwO5Xz-75" vertex="1">
          <mxGeometry width="50" height="50" as="geometry" />
        </mxCell>
        <mxCell id="ey7ev-T-7AU6QwHwO5Xz-79" value="?" style="text;html=1;align=center;verticalAlign=middle;resizable=0;points=[];autosize=1;strokeColor=none;fillColor=none;fontSize=12;fontFamily=Helvetica;fontColor=default;" parent="1" vertex="1">
          <mxGeometry x="325" y="238" width="30" height="30" as="geometry" />
        </mxCell>
        <mxCell id="ey7ev-T-7AU6QwHwO5Xz-80" value="" style="group" parent="1" vertex="1" connectable="0">
          <mxGeometry x="400" y="230" width="50" height="50" as="geometry" />
        </mxCell>
        <mxCell id="ey7ev-T-7AU6QwHwO5Xz-81" value="" style="ellipse;whiteSpace=wrap;html=1;" parent="ey7ev-T-7AU6QwHwO5Xz-80" vertex="1">
          <mxGeometry x="5" y="5" width="40" height="40" as="geometry" />
        </mxCell>
        <mxCell id="ey7ev-T-7AU6QwHwO5Xz-82" value="EQ" style="ellipse;whiteSpace=wrap;html=1;fillColor=none;" parent="ey7ev-T-7AU6QwHwO5Xz-80" vertex="1">
          <mxGeometry width="50" height="50" as="geometry" />
        </mxCell>
        <mxCell id="ey7ev-T-7AU6QwHwO5Xz-83" style="edgeStyle=orthogonalEdgeStyle;shape=connector;curved=1;rounded=0;orthogonalLoop=1;jettySize=auto;html=1;exitX=0.5;exitY=0;exitDx=0;exitDy=0;entryX=0.5;entryY=1;entryDx=0;entryDy=0;labelBackgroundColor=default;strokeColor=default;align=center;verticalAlign=middle;fontFamily=Helvetica;fontSize=12;fontColor=default;endArrow=classic;elbow=vertical;" parent="1" source="ey7ev-T-7AU6QwHwO5Xz-63" target="ey7ev-T-7AU6QwHwO5Xz-82" edge="1">
          <mxGeometry relative="1" as="geometry" />
        </mxCell>
        <mxCell id="ey7ev-T-7AU6QwHwO5Xz-84" value="=" style="text;html=1;align=center;verticalAlign=middle;resizable=0;points=[];autosize=1;strokeColor=none;fillColor=none;fontSize=12;fontFamily=Helvetica;fontColor=default;" parent="1" vertex="1">
          <mxGeometry x="425" y="278" width="30" height="30" as="geometry" />
        </mxCell>
        <mxCell id="ey7ev-T-7AU6QwHwO5Xz-85" value="" style="group" parent="1" vertex="1" connectable="0">
          <mxGeometry x="460" y="230" width="50" height="50" as="geometry" />
        </mxCell>
        <mxCell id="ey7ev-T-7AU6QwHwO5Xz-86" value="" style="ellipse;whiteSpace=wrap;html=1;" parent="ey7ev-T-7AU6QwHwO5Xz-85" vertex="1">
          <mxGeometry x="5" y="5" width="40" height="40" as="geometry" />
        </mxCell>
        <mxCell id="ey7ev-T-7AU6QwHwO5Xz-87" value="NEQ" style="ellipse;whiteSpace=wrap;html=1;fillColor=none;" parent="ey7ev-T-7AU6QwHwO5Xz-85" vertex="1">
          <mxGeometry width="50" height="50" as="geometry" />
        </mxCell>
        <mxCell id="ey7ev-T-7AU6QwHwO5Xz-88" value="" style="group" parent="1" vertex="1" connectable="0">
          <mxGeometry x="460" y="340" width="50" height="50" as="geometry" />
        </mxCell>
        <mxCell id="ey7ev-T-7AU6QwHwO5Xz-89" value="" style="ellipse;whiteSpace=wrap;html=1;" parent="ey7ev-T-7AU6QwHwO5Xz-88" vertex="1">
          <mxGeometry x="5" y="5" width="40" height="40" as="geometry" />
        </mxCell>
        <mxCell id="ey7ev-T-7AU6QwHwO5Xz-90" value="NOT&lt;br&gt;NIL" style="ellipse;whiteSpace=wrap;html=1;fillColor=none;" parent="ey7ev-T-7AU6QwHwO5Xz-88" vertex="1">
          <mxGeometry width="50" height="50" as="geometry" />
        </mxCell>
        <mxCell id="ey7ev-T-7AU6QwHwO5Xz-91" style="edgeStyle=orthogonalEdgeStyle;shape=connector;curved=1;rounded=0;orthogonalLoop=1;jettySize=auto;html=1;exitX=0.5;exitY=0;exitDx=0;exitDy=0;entryX=0.5;entryY=1;entryDx=0;entryDy=0;labelBackgroundColor=default;strokeColor=default;align=center;verticalAlign=middle;fontFamily=Helvetica;fontSize=12;fontColor=default;endArrow=classic;elbow=vertical;" parent="1" source="ey7ev-T-7AU6QwHwO5Xz-90" target="ey7ev-T-7AU6QwHwO5Xz-87" edge="1">
          <mxGeometry relative="1" as="geometry" />
        </mxCell>
        <mxCell id="ey7ev-T-7AU6QwHwO5Xz-92" value="=" style="text;html=1;align=center;verticalAlign=middle;resizable=0;points=[];autosize=1;strokeColor=none;fillColor=none;fontSize=12;fontFamily=Helvetica;fontColor=default;" parent="1" vertex="1">
          <mxGeometry x="485" y="278" width="30" height="30" as="geometry" />
        </mxCell>
        <mxCell id="ey7ev-T-7AU6QwHwO5Xz-94" value="!" style="text;html=1;align=center;verticalAlign=middle;resizable=0;points=[];autosize=1;strokeColor=none;fillColor=none;fontSize=12;fontFamily=Helvetica;fontColor=default;" parent="1" vertex="1">
          <mxGeometry x="485" y="388" width="30" height="30" as="geometry" />
        </mxCell>
        <mxCell id="ey7ev-T-7AU6QwHwO5Xz-95" value="" style="group" parent="1" vertex="1" connectable="0">
          <mxGeometry x="515" y="390" width="50" height="50" as="geometry" />
        </mxCell>
        <mxCell id="ey7ev-T-7AU6QwHwO5Xz-96" value="" style="ellipse;whiteSpace=wrap;html=1;" parent="ey7ev-T-7AU6QwHwO5Xz-95" vertex="1">
          <mxGeometry x="5" y="5" width="40" height="40" as="geometry" />
        </mxCell>
        <mxCell id="ey7ev-T-7AU6QwHwO5Xz-97" value="GT" style="ellipse;whiteSpace=wrap;html=1;fillColor=none;" parent="ey7ev-T-7AU6QwHwO5Xz-95" vertex="1">
          <mxGeometry width="50" height="50" as="geometry" />
        </mxCell>
        <mxCell id="ey7ev-T-7AU6QwHwO5Xz-98" value="" style="group" parent="1" vertex="1" connectable="0">
          <mxGeometry x="530" y="450" width="50" height="50" as="geometry" />
        </mxCell>
        <mxCell id="ey7ev-T-7AU6QwHwO5Xz-99" value="" style="ellipse;whiteSpace=wrap;html=1;" parent="ey7ev-T-7AU6QwHwO5Xz-98" vertex="1">
          <mxGeometry x="5" y="5" width="40" height="40" as="geometry" />
        </mxCell>
        <mxCell id="ey7ev-T-7AU6QwHwO5Xz-100" value="LT" style="ellipse;whiteSpace=wrap;html=1;fillColor=none;" parent="ey7ev-T-7AU6QwHwO5Xz-98" vertex="1">
          <mxGeometry width="50" height="50" as="geometry" />
        </mxCell>
        <mxCell id="ey7ev-T-7AU6QwHwO5Xz-106" value="&amp;gt;" style="text;html=1;align=center;verticalAlign=middle;resizable=0;points=[];autosize=1;strokeColor=none;fillColor=none;fontSize=12;fontFamily=Helvetica;fontColor=default;" parent="1" vertex="1">
          <mxGeometry x="495" y="438" width="30" height="30" as="geometry" />
        </mxCell>
        <mxCell id="ey7ev-T-7AU6QwHwO5Xz-107" value="&amp;lt;" style="text;html=1;align=center;verticalAlign=middle;resizable=0;points=[];autosize=1;strokeColor=none;fillColor=none;fontSize=12;fontFamily=Helvetica;fontColor=default;" parent="1" vertex="1">
          <mxGeometry x="495" y="478" width="30" height="30" as="geometry" />
        </mxCell>
        <mxCell id="ey7ev-T-7AU6QwHwO5Xz-108" value="" style="group" parent="1" vertex="1" connectable="0">
          <mxGeometry x="620" y="380" width="50" height="50" as="geometry" />
        </mxCell>
        <mxCell id="ey7ev-T-7AU6QwHwO5Xz-109" value="" style="ellipse;whiteSpace=wrap;html=1;" parent="ey7ev-T-7AU6QwHwO5Xz-108" vertex="1">
          <mxGeometry x="5" y="5" width="40" height="40" as="geometry" />
        </mxCell>
        <mxCell id="ey7ev-T-7AU6QwHwO5Xz-110" value="LEQ" style="ellipse;whiteSpace=wrap;html=1;fillColor=none;" parent="ey7ev-T-7AU6QwHwO5Xz-108" vertex="1">
          <mxGeometry width="50" height="50" as="geometry" />
        </mxCell>
        <mxCell id="ey7ev-T-7AU6QwHwO5Xz-111" value="" style="group" parent="1" vertex="1" connectable="0">
          <mxGeometry x="580" y="330" width="50" height="50" as="geometry" />
        </mxCell>
        <mxCell id="ey7ev-T-7AU6QwHwO5Xz-112" value="" style="ellipse;whiteSpace=wrap;html=1;" parent="ey7ev-T-7AU6QwHwO5Xz-111" vertex="1">
          <mxGeometry x="5" y="5" width="40" height="40" as="geometry" />
        </mxCell>
        <mxCell id="ey7ev-T-7AU6QwHwO5Xz-113" value="GEQ" style="ellipse;whiteSpace=wrap;html=1;fillColor=none;" parent="ey7ev-T-7AU6QwHwO5Xz-111" vertex="1">
          <mxGeometry width="50" height="50" as="geometry" />
        </mxCell>
        <mxCell id="ey7ev-T-7AU6QwHwO5Xz-114" style="edgeStyle=orthogonalEdgeStyle;shape=connector;curved=1;rounded=0;orthogonalLoop=1;jettySize=auto;html=1;exitX=0.5;exitY=0;exitDx=0;exitDy=0;entryX=0;entryY=0.5;entryDx=0;entryDy=0;labelBackgroundColor=default;strokeColor=default;align=center;verticalAlign=middle;fontFamily=Helvetica;fontSize=12;fontColor=default;endArrow=classic;elbow=vertical;" parent="1" source="ey7ev-T-7AU6QwHwO5Xz-97" target="ey7ev-T-7AU6QwHwO5Xz-113" edge="1">
          <mxGeometry relative="1" as="geometry" />
        </mxCell>
        <mxCell id="ey7ev-T-7AU6QwHwO5Xz-118" style="edgeStyle=orthogonalEdgeStyle;shape=connector;curved=1;rounded=0;orthogonalLoop=1;jettySize=auto;html=1;exitX=1;exitY=0;exitDx=0;exitDy=0;entryX=0;entryY=0.5;entryDx=0;entryDy=0;labelBackgroundColor=default;strokeColor=default;align=center;verticalAlign=middle;fontFamily=Helvetica;fontSize=12;fontColor=default;endArrow=classic;elbow=vertical;" parent="1" source="ey7ev-T-7AU6QwHwO5Xz-100" target="ey7ev-T-7AU6QwHwO5Xz-110" edge="1">
          <mxGeometry relative="1" as="geometry" />
        </mxCell>
        <mxCell id="ey7ev-T-7AU6QwHwO5Xz-119" value="=" style="text;html=1;align=center;verticalAlign=middle;resizable=0;points=[];autosize=1;strokeColor=none;fillColor=none;fontSize=12;fontFamily=Helvetica;fontColor=default;" parent="1" vertex="1">
          <mxGeometry x="550" y="330" width="30" height="30" as="geometry" />
        </mxCell>
        <mxCell id="ey7ev-T-7AU6QwHwO5Xz-120" value="=" style="text;html=1;align=center;verticalAlign=middle;resizable=0;points=[];autosize=1;strokeColor=none;fillColor=none;fontSize=12;fontFamily=Helvetica;fontColor=default;" parent="1" vertex="1">
          <mxGeometry x="575" y="388" width="30" height="30" as="geometry" />
        </mxCell>
        <mxCell id="ey7ev-T-7AU6QwHwO5Xz-122" value="" style="group" parent="1" vertex="1" connectable="0">
          <mxGeometry x="420" y="668" width="50" height="62" as="geometry" />
        </mxCell>
        <mxCell id="ey7ev-T-7AU6QwHwO5Xz-123" value="" style="ellipse;whiteSpace=wrap;html=1;" parent="ey7ev-T-7AU6QwHwO5Xz-122" vertex="1">
          <mxGeometry x="5" y="5" width="40" height="40" as="geometry" />
        </mxCell>
        <mxCell id="ey7ev-T-7AU6QwHwO5Xz-124" value="INT" style="ellipse;whiteSpace=wrap;html=1;fillColor=none;" parent="ey7ev-T-7AU6QwHwO5Xz-122" vertex="1">
          <mxGeometry width="50" height="50" as="geometry" />
        </mxCell>
        <mxCell id="ey7ev-T-7AU6QwHwO5Xz-129" style="edgeStyle=orthogonalEdgeStyle;shape=connector;curved=1;rounded=0;orthogonalLoop=1;jettySize=auto;html=1;exitX=0;exitY=0.5;exitDx=0;exitDy=0;entryX=0.225;entryY=0.916;entryDx=0;entryDy=0;entryPerimeter=0;labelBackgroundColor=default;strokeColor=default;align=center;verticalAlign=middle;fontFamily=Helvetica;fontSize=12;fontColor=default;endArrow=classic;elbow=vertical;" parent="ey7ev-T-7AU6QwHwO5Xz-122" target="ey7ev-T-7AU6QwHwO5Xz-124" edge="1">
          <mxGeometry relative="1" as="geometry">
            <mxPoint x="-1.1368683772161603e-13" y="27.05" as="sourcePoint" />
            <mxPoint x="13" y="50.00000000000004" as="targetPoint" />
            <Array as="points">
              <mxPoint x="-20" y="27" />
              <mxPoint x="-20" y="62" />
              <mxPoint x="11" y="62" />
            </Array>
          </mxGeometry>
        </mxCell>
        <mxCell id="ey7ev-T-7AU6QwHwO5Xz-130" value="0-9" style="text;html=1;align=center;verticalAlign=middle;resizable=0;points=[];autosize=1;strokeColor=none;fillColor=none;fontSize=12;fontFamily=Helvetica;fontColor=default;" parent="ey7ev-T-7AU6QwHwO5Xz-122" vertex="1">
          <mxGeometry x="-20" y="32" width="40" height="30" as="geometry" />
        </mxCell>
        <mxCell id="ey7ev-T-7AU6QwHwO5Xz-126" value="0-9" style="text;html=1;align=center;verticalAlign=middle;resizable=0;points=[];autosize=1;strokeColor=none;fillColor=none;fontSize=12;fontFamily=Helvetica;fontColor=default;" parent="1" vertex="1">
          <mxGeometry x="420" y="588" width="40" height="30" as="geometry" />
        </mxCell>
        <mxCell id="ey7ev-T-7AU6QwHwO5Xz-137" style="edgeStyle=orthogonalEdgeStyle;shape=connector;curved=1;rounded=0;orthogonalLoop=1;jettySize=auto;html=1;exitX=0.5;exitY=1;exitDx=0;exitDy=0;entryX=0.5;entryY=1;entryDx=0;entryDy=0;labelBackgroundColor=default;strokeColor=default;align=center;verticalAlign=middle;fontFamily=Helvetica;fontSize=12;fontColor=default;endArrow=classic;elbow=vertical;" parent="1" source="ey7ev-T-7AU6QwHwO5Xz-131" target="ey7ev-T-7AU6QwHwO5Xz-136" edge="1">
          <mxGeometry relative="1" as="geometry" />
        </mxCell>
        <mxCell id="ey7ev-T-7AU6QwHwO5Xz-131" value="DBL&lt;div&gt;S&lt;br&gt;&lt;/div&gt;" style="ellipse;whiteSpace=wrap;html=1;pointerEvents=0;align=center;verticalAlign=top;fontFamily=Helvetica;fontSize=12;fontColor=default;fillColor=none;gradientColor=none;" parent="1" vertex="1">
          <mxGeometry x="440.0000000000002" y="760" width="50" height="50" as="geometry" />
        </mxCell>
        <mxCell id="ey7ev-T-7AU6QwHwO5Xz-132" style="edgeStyle=orthogonalEdgeStyle;shape=connector;curved=1;rounded=0;orthogonalLoop=1;jettySize=auto;html=1;exitX=0.5;exitY=1;exitDx=0;exitDy=0;entryX=0;entryY=0;entryDx=0;entryDy=0;labelBackgroundColor=default;strokeColor=default;align=center;verticalAlign=middle;fontFamily=Helvetica;fontSize=12;fontColor=default;endArrow=classic;elbow=vertical;" parent="1" source="ey7ev-T-7AU6QwHwO5Xz-124" target="ey7ev-T-7AU6QwHwO5Xz-131" edge="1">
          <mxGeometry relative="1" as="geometry" />
        </mxCell>
        <mxCell id="ey7ev-T-7AU6QwHwO5Xz-133" value="dot" style="text;html=1;align=center;verticalAlign=middle;resizable=0;points=[];autosize=1;strokeColor=none;fillColor=none;fontSize=12;fontFamily=Helvetica;fontColor=default;" parent="1" vertex="1">
          <mxGeometry x="440" y="730" width="40" height="30" as="geometry" />
        </mxCell>
        <mxCell id="ey7ev-T-7AU6QwHwO5Xz-134" value="" style="group" parent="1" vertex="1" connectable="0">
          <mxGeometry x="500" y="798" width="50" height="50" as="geometry" />
        </mxCell>
        <mxCell id="ey7ev-T-7AU6QwHwO5Xz-135" value="" style="ellipse;whiteSpace=wrap;html=1;" parent="ey7ev-T-7AU6QwHwO5Xz-134" vertex="1">
          <mxGeometry x="5" y="5" width="40" height="40" as="geometry" />
        </mxCell>
        <mxCell id="ey7ev-T-7AU6QwHwO5Xz-136" value="DBL" style="ellipse;whiteSpace=wrap;html=1;fillColor=none;" parent="ey7ev-T-7AU6QwHwO5Xz-134" vertex="1">
          <mxGeometry width="50" height="50" as="geometry" />
        </mxCell>
        <mxCell id="ey7ev-T-7AU6QwHwO5Xz-139" style="edgeStyle=orthogonalEdgeStyle;shape=connector;curved=1;rounded=0;orthogonalLoop=1;jettySize=auto;html=1;exitX=1;exitY=1;exitDx=0;exitDy=0;entryX=1;entryY=0.5;entryDx=0;entryDy=0;labelBackgroundColor=default;strokeColor=default;align=center;verticalAlign=middle;fontFamily=Helvetica;fontSize=12;fontColor=default;endArrow=classic;elbow=vertical;" parent="ey7ev-T-7AU6QwHwO5Xz-134" source="ey7ev-T-7AU6QwHwO5Xz-136" target="ey7ev-T-7AU6QwHwO5Xz-136" edge="1">
          <mxGeometry relative="1" as="geometry">
            <Array as="points">
              <mxPoint x="43" y="60" />
              <mxPoint x="85" y="60" />
              <mxPoint x="85" y="25" />
            </Array>
          </mxGeometry>
        </mxCell>
        <mxCell id="ey7ev-T-7AU6QwHwO5Xz-138" value="0-9" style="text;html=1;align=center;verticalAlign=middle;resizable=0;points=[];autosize=1;strokeColor=none;fillColor=none;fontSize=12;fontFamily=Helvetica;fontColor=default;" parent="1" vertex="1">
          <mxGeometry x="475" y="844" width="40" height="30" as="geometry" />
        </mxCell>
        <mxCell id="ey7ev-T-7AU6QwHwO5Xz-140" value="0-9" style="text;html=1;align=center;verticalAlign=middle;resizable=0;points=[];autosize=1;strokeColor=none;fillColor=none;fontSize=12;fontFamily=Helvetica;fontColor=default;" parent="1" vertex="1">
          <mxGeometry x="545" y="830" width="40" height="30" as="geometry" />
        </mxCell>
        <mxCell id="ey7ev-T-7AU6QwHwO5Xz-153" style="edgeStyle=orthogonalEdgeStyle;shape=connector;curved=1;rounded=0;orthogonalLoop=1;jettySize=auto;html=1;exitX=1;exitY=0.5;exitDx=0;exitDy=0;entryX=0;entryY=0.5;entryDx=0;entryDy=0;labelBackgroundColor=default;strokeColor=default;align=center;verticalAlign=middle;fontFamily=Helvetica;fontSize=12;fontColor=default;endArrow=classic;elbow=vertical;" parent="1" source="ey7ev-T-7AU6QwHwO5Xz-141" target="ey7ev-T-7AU6QwHwO5Xz-149" edge="1">
          <mxGeometry relative="1" as="geometry" />
        </mxCell>
        <mxCell id="ey7ev-T-7AU6QwHwO5Xz-155" style="edgeStyle=orthogonalEdgeStyle;shape=connector;curved=1;rounded=0;orthogonalLoop=1;jettySize=auto;html=1;exitX=1;exitY=1;exitDx=0;exitDy=0;entryX=0;entryY=0.5;entryDx=0;entryDy=0;labelBackgroundColor=default;strokeColor=default;align=center;verticalAlign=middle;fontFamily=Helvetica;fontSize=12;fontColor=default;endArrow=classic;elbow=vertical;" parent="1" source="ey7ev-T-7AU6QwHwO5Xz-141" target="ey7ev-T-7AU6QwHwO5Xz-152" edge="1">
          <mxGeometry relative="1" as="geometry" />
        </mxCell>
        <mxCell id="ey7ev-T-7AU6QwHwO5Xz-141" value="EXP&lt;br&gt;S" style="ellipse;whiteSpace=wrap;html=1;pointerEvents=0;align=center;verticalAlign=top;fontFamily=Helvetica;fontSize=12;fontColor=default;fillColor=none;gradientColor=none;" parent="1" vertex="1">
          <mxGeometry x="515.0000000000002" y="716" width="50" height="50" as="geometry" />
        </mxCell>
        <mxCell id="ey7ev-T-7AU6QwHwO5Xz-144" style="edgeStyle=orthogonalEdgeStyle;shape=connector;curved=1;rounded=0;orthogonalLoop=1;jettySize=auto;html=1;exitX=1;exitY=0.5;exitDx=0;exitDy=0;entryX=0.5;entryY=0;entryDx=0;entryDy=0;labelBackgroundColor=default;strokeColor=default;align=center;verticalAlign=middle;fontFamily=Helvetica;fontSize=12;fontColor=default;endArrow=classic;elbow=vertical;" parent="1" source="ey7ev-T-7AU6QwHwO5Xz-124" target="ey7ev-T-7AU6QwHwO5Xz-141" edge="1">
          <mxGeometry relative="1" as="geometry" />
        </mxCell>
        <mxCell id="ey7ev-T-7AU6QwHwO5Xz-146" value="e/E" style="edgeLabel;html=1;align=center;verticalAlign=middle;resizable=0;points=[];fontSize=12;fontFamily=Helvetica;fontColor=default;" parent="ey7ev-T-7AU6QwHwO5Xz-144" vertex="1" connectable="0">
          <mxGeometry x="-0.4259" y="5" relative="1" as="geometry">
            <mxPoint x="9" y="17" as="offset" />
          </mxGeometry>
        </mxCell>
        <mxCell id="ey7ev-T-7AU6QwHwO5Xz-147" style="edgeStyle=orthogonalEdgeStyle;shape=connector;curved=1;rounded=0;orthogonalLoop=1;jettySize=auto;html=1;exitX=0.5;exitY=0;exitDx=0;exitDy=0;entryX=0.5;entryY=1;entryDx=0;entryDy=0;labelBackgroundColor=default;strokeColor=default;align=center;verticalAlign=middle;fontFamily=Helvetica;fontSize=12;fontColor=default;endArrow=classic;elbow=vertical;" parent="1" source="ey7ev-T-7AU6QwHwO5Xz-136" target="ey7ev-T-7AU6QwHwO5Xz-141" edge="1">
          <mxGeometry relative="1" as="geometry" />
        </mxCell>
        <mxCell id="ey7ev-T-7AU6QwHwO5Xz-148" value="e/E" style="text;html=1;align=center;verticalAlign=middle;resizable=0;points=[];autosize=1;strokeColor=none;fillColor=none;fontSize=12;fontFamily=Helvetica;fontColor=default;" parent="1" vertex="1">
          <mxGeometry x="505" y="766" width="40" height="30" as="geometry" />
        </mxCell>
        <mxCell id="ey7ev-T-7AU6QwHwO5Xz-156" style="edgeStyle=orthogonalEdgeStyle;shape=connector;curved=1;rounded=0;orthogonalLoop=1;jettySize=auto;html=1;exitX=0.5;exitY=1;exitDx=0;exitDy=0;entryX=0.5;entryY=0;entryDx=0;entryDy=0;labelBackgroundColor=default;strokeColor=default;align=center;verticalAlign=middle;fontFamily=Helvetica;fontSize=12;fontColor=default;endArrow=classic;elbow=vertical;" parent="1" source="ey7ev-T-7AU6QwHwO5Xz-149" target="ey7ev-T-7AU6QwHwO5Xz-152" edge="1">
          <mxGeometry relative="1" as="geometry" />
        </mxCell>
        <mxCell id="ey7ev-T-7AU6QwHwO5Xz-149" value="EXP&lt;br&gt;SIGN" style="ellipse;whiteSpace=wrap;html=1;pointerEvents=0;align=center;verticalAlign=top;fontFamily=Helvetica;fontSize=12;fontColor=default;fillColor=none;gradientColor=none;" parent="1" vertex="1">
          <mxGeometry x="634.0000000000002" y="730" width="50" height="50" as="geometry" />
        </mxCell>
        <mxCell id="ey7ev-T-7AU6QwHwO5Xz-150" value="" style="group" parent="1" vertex="1" connectable="0">
          <mxGeometry x="634" y="810" width="50" height="50" as="geometry" />
        </mxCell>
        <mxCell id="ey7ev-T-7AU6QwHwO5Xz-151" value="" style="ellipse;whiteSpace=wrap;html=1;" parent="ey7ev-T-7AU6QwHwO5Xz-150" vertex="1">
          <mxGeometry x="5" y="5" width="40" height="40" as="geometry" />
        </mxCell>
        <mxCell id="ey7ev-T-7AU6QwHwO5Xz-152" value="EXP" style="ellipse;whiteSpace=wrap;html=1;fillColor=none;" parent="ey7ev-T-7AU6QwHwO5Xz-150" vertex="1">
          <mxGeometry width="50" height="50" as="geometry" />
        </mxCell>
        <mxCell id="ey7ev-T-7AU6QwHwO5Xz-159" style="edgeStyle=orthogonalEdgeStyle;shape=connector;curved=1;rounded=0;orthogonalLoop=1;jettySize=auto;html=1;exitX=0.5;exitY=1;exitDx=0;exitDy=0;entryX=1;entryY=0.5;entryDx=0;entryDy=0;labelBackgroundColor=default;strokeColor=default;align=center;verticalAlign=middle;fontFamily=Helvetica;fontSize=12;fontColor=default;endArrow=classic;elbow=vertical;" parent="ey7ev-T-7AU6QwHwO5Xz-150" source="ey7ev-T-7AU6QwHwO5Xz-152" target="ey7ev-T-7AU6QwHwO5Xz-152" edge="1">
          <mxGeometry relative="1" as="geometry">
            <Array as="points">
              <mxPoint x="25" y="70" />
              <mxPoint x="80" y="70" />
              <mxPoint x="80" y="25" />
            </Array>
          </mxGeometry>
        </mxCell>
        <mxCell id="ey7ev-T-7AU6QwHwO5Xz-154" value="+-" style="text;html=1;align=center;verticalAlign=middle;resizable=0;points=[];autosize=1;strokeColor=none;fillColor=none;fontSize=12;fontFamily=Helvetica;fontColor=default;" parent="1" vertex="1">
          <mxGeometry x="602" y="728" width="30" height="30" as="geometry" />
        </mxCell>
        <mxCell id="ey7ev-T-7AU6QwHwO5Xz-157" value="0-9" style="text;html=1;align=center;verticalAlign=middle;resizable=0;points=[];autosize=1;strokeColor=none;fillColor=none;fontSize=12;fontFamily=Helvetica;fontColor=default;" parent="1" vertex="1">
          <mxGeometry x="625" y="780" width="40" height="30" as="geometry" />
        </mxCell>
        <mxCell id="ey7ev-T-7AU6QwHwO5Xz-158" value="0-9" style="text;html=1;align=center;verticalAlign=middle;resizable=0;points=[];autosize=1;strokeColor=none;fillColor=none;fontSize=12;fontFamily=Helvetica;fontColor=default;" parent="1" vertex="1">
          <mxGeometry x="565" y="780" width="40" height="30" as="geometry" />
        </mxCell>
        <mxCell id="ey7ev-T-7AU6QwHwO5Xz-160" value="0-9" style="text;html=1;align=center;verticalAlign=middle;resizable=0;points=[];autosize=1;strokeColor=none;fillColor=none;fontSize=12;fontFamily=Helvetica;fontColor=default;" parent="1" vertex="1">
          <mxGeometry x="670" y="844" width="40" height="30" as="geometry" />
        </mxCell>
        <mxCell id="-FXcNoNlDTyhdYF_TwbN-12" value="" style="group" vertex="1" connectable="0" parent="1">
          <mxGeometry x="250" y="290" width="50" height="50" as="geometry" />
        </mxCell>
        <mxCell id="-FXcNoNlDTyhdYF_TwbN-13" value="" style="ellipse;whiteSpace=wrap;html=1;" vertex="1" parent="-FXcNoNlDTyhdYF_TwbN-12">
          <mxGeometry x="5" y="5" width="40" height="40" as="geometry" />
        </mxCell>
        <mxCell id="-FXcNoNlDTyhdYF_TwbN-14" value="&lt;div&gt;UND_&lt;/div&gt;&lt;div&gt;SCR&lt;/div&gt;" style="ellipse;whiteSpace=wrap;html=1;fillColor=none;" vertex="1" parent="-FXcNoNlDTyhdYF_TwbN-12">
          <mxGeometry width="50" height="50" as="geometry" />
        </mxCell>
        <mxCell id="-FXcNoNlDTyhdYF_TwbN-18" value="_" style="text;html=1;align=center;verticalAlign=middle;resizable=0;points=[];autosize=1;strokeColor=none;fillColor=none;" vertex="1" parent="1">
          <mxGeometry x="305" y="290" width="30" height="30" as="geometry" />
        </mxCell>
      </root>
    </mxGraphModel>
  </diagram>
</mxfile>
